<?xml version="1.0" encoding="UTF-8"?>
<!DOCTYPE svg PUBLIC "-//W3C//DTD SVG 1.1//EN" "http://www.w3.org/Graphics/SVG/1.1/DTD/svg11.dtd">
<svg xmlns="http://www.w3.org/2000/svg" version="1.1" width="3639px" height="7661px" style="shape-rendering:geometricPrecision; text-rendering:geometricPrecision; image-rendering:optimizeQuality; fill-rule:evenodd; clip-rule:evenodd" xmlns:xlink="http://www.w3.org/1999/xlink">
<g><path style="opacity:0.991" fill="#d2c3a4" d="M 2253.5,714.5 C 2205.86,718.164 2158.2,721.498 2110.5,724.5C 2089.93,685.682 2066.09,649.015 2039,614.5C 2021.61,593.436 2001.44,575.603 1978.5,561C 1946.98,542.176 1915.31,541.842 1883.5,560C 1866.53,571.291 1851.03,584.457 1837,599.5C 1821.24,617.925 1806.24,636.925 1792,656.5C 1770.25,688.071 1748.75,719.737 1727.5,751.5C 1667.13,755.598 1606.79,759.931 1546.5,764.5C 1577.46,729.906 1607.96,694.906 1638,659.5C 1678.88,607.424 1715.55,552.424 1748,494.5C 1801.63,403.416 1855.13,312.249 1908.5,221C 1914.17,220.333 1919.83,220.333 1925.5,221C 1969.13,294.65 2011.97,368.816 2054,443.5C 2095.59,515.399 2142.25,583.732 2194,648.5C 2213.3,670.968 2233.13,692.968 2253.5,714.5 Z"/></g>
<g><path style="opacity:0.99" fill="#d2c1a0" d="M 2253.5,714.5 C 2295.45,756.641 2340.79,794.475 2389.5,828C 2427.17,853.667 2464.83,879.333 2502.5,905C 2516.08,914.944 2529.41,925.111 2542.5,935.5C 2470.51,940.677 2398.51,945.677 2326.5,950.5C 2261.37,902.905 2200.21,850.239 2143,792.5C 2132.43,769.69 2121.59,747.023 2110.5,724.5C 2158.2,721.498 2205.86,718.164 2253.5,714.5 Z"/></g>
<g><path style="opacity:0.991" fill="#d2c1a0" d="M 1727.5,751.5 C 1667.11,842.594 1598.77,927.594 1522.5,1006.5C 1461.22,1011.21 1399.88,1015.54 1338.5,1019.5C 1375.14,972.891 1411.31,925.891 1447,878.5C 1479.01,839.492 1512.17,801.492 1546.5,764.5C 1606.79,759.931 1667.13,755.598 1727.5,751.5 Z"/></g>
<g><path style="opacity:0.987" fill="#d2c19e" d="M 2542.5,935.5 C 2575.28,958.444 2602.44,986.777 2624,1020.5C 2642.47,1055.64 2648.97,1092.98 2643.5,1132.5C 2530.26,1083.76 2424.6,1023.09 2326.5,950.5C 2398.51,945.677 2470.51,940.677 2542.5,935.5 Z"/></g>
<g><path style="opacity:0.808" fill="#d2c29f" d="M 1926.5,978.5 C 1922.85,978.942 1919.18,979.276 1915.5,979.5C 1917.56,972.825 1919.72,966.158 1922,959.5C 1923.57,965.854 1925.07,972.187 1926.5,978.5 Z"/></g>
<g><path style="opacity:0.985" fill="#d2c09d" d="M 1926.5,978.5 C 1939.96,1062.36 1960.63,1144.36 1988.5,1224.5C 1935.14,1227.88 1881.81,1231.55 1828.5,1235.5C 1864.26,1152.54 1893.26,1067.21 1915.5,979.5C 1919.18,979.276 1922.85,978.942 1926.5,978.5 Z"/></g>
<g><path style="opacity:0.986" fill="#d2c09e" d="M 1522.5,1006.5 C 1424.68,1109.04 1317.68,1200.04 1201.5,1279.5C 1171.81,1281.26 1142.15,1283.26 1112.5,1285.5C 1189.73,1198.31 1265.07,1109.64 1338.5,1019.5C 1399.88,1015.54 1461.22,1011.21 1522.5,1006.5 Z"/></g>
<g><path style="opacity:0.99" fill="#d2bf98" d="M 1988.5,1224.5 C 2039.41,1361.04 2107.91,1487.37 2194,1603.5C 2226.1,1647.44 2260.27,1689.78 2296.5,1730.5C 2246.51,1734.25 2196.51,1737.92 2146.5,1741.5C 2130.59,1716.69 2115.42,1691.36 2101,1665.5C 2010.19,1571.64 1940.69,1463.64 1892.5,1341.5C 1869.3,1401.9 1840.8,1459.57 1807,1514.5C 1791.73,1538.11 1776.06,1561.44 1760,1584.5C 1713.3,1649.35 1666.47,1714.01 1619.5,1778.5C 1564.49,1782.02 1509.49,1785.69 1454.5,1789.5C 1536.9,1695.28 1613.4,1596.62 1684,1493.5C 1739.08,1411.71 1787.25,1325.71 1828.5,1235.5C 1881.81,1231.55 1935.14,1227.88 1988.5,1224.5 Z"/></g>
<g><path style="opacity:0.952" fill="#d2c19b" d="M 1201.5,1279.5 C 1133.15,1325.83 1064.48,1371.83 995.5,1417.5C 994.479,1417 994.312,1416.33 995,1415.5C 1033.66,1371.67 1072.83,1328.34 1112.5,1285.5C 1142.15,1283.26 1171.81,1281.26 1201.5,1279.5 Z"/></g>
<g><path style="opacity:0.968" fill="#d1bf95" d="M 1951.5,1754.5 C 1933.58,1756.21 1915.58,1757.54 1897.5,1758.5C 1896.18,1749.35 1895.18,1740.02 1894.5,1730.5C 1894.37,1718.48 1899.7,1709.98 1910.5,1705C 1919.76,1702.73 1929.1,1701.9 1938.5,1702.5C 1944.11,1719.54 1948.44,1736.88 1951.5,1754.5 Z"/></g>
<g><path style="opacity:0.99" fill="#d2bd92" d="M 2296.5,1730.5 C 2378.55,1815.05 2461.55,1898.88 2545.5,1982C 2578.46,2013.81 2612.13,2044.64 2646.5,2074.5C 2584.69,2079.44 2522.69,2083.78 2460.5,2087.5C 2336.34,1989.36 2231.67,1874.03 2146.5,1741.5C 2196.51,1737.92 2246.51,1734.25 2296.5,1730.5 Z"/></g>
<g><path style="opacity:0.986" fill="#d2bd92" d="M 1951.5,1754.5 C 1974.33,1875.44 1986.99,1997.44 1989.5,2120.5C 1954.22,2123.3 1918.89,2125.96 1883.5,2128.5C 1898.29,2071.77 1906.79,2014.11 1909,1955.5C 1909.65,1935.15 1909.32,1914.82 1908,1894.5C 1904.5,1849.16 1901,1803.83 1897.5,1758.5C 1915.58,1757.54 1933.58,1756.21 1951.5,1754.5 Z"/></g>
<g><path style="opacity:0.991" fill="#d2bd92" d="M 1619.5,1778.5 C 1547.32,1890.14 1467.82,1996.47 1381,2097.5C 1359.36,2121.97 1336.86,2145.64 1313.5,2168.5C 1244.82,2172.98 1176.15,2177.64 1107.5,2182.5C 1128.79,2157.37 1150.29,2132.37 1172,2107.5C 1266.88,2002.03 1361.05,1896.03 1454.5,1789.5C 1509.49,1785.69 1564.49,1782.02 1619.5,1778.5 Z"/></g>
<g><path style="opacity:0.985" fill="#d2bc8d" d="M 2646.5,2074.5 C 2702.95,2122.4 2763.28,2164.9 2827.5,2202C 2866.02,2223.76 2905.02,2244.76 2944.5,2265C 2999.38,2291.61 3054.05,2318.44 3108.5,2345.5C 3078.34,2347.66 3048.34,2350 3018.5,2352.5C 2812.05,2305.25 2626.05,2216.92 2460.5,2087.5C 2522.69,2083.78 2584.69,2079.44 2646.5,2074.5 Z"/></g>
<g><path style="opacity:0.993" fill="#d2bc8c" d="M 1989.5,2120.5 C 1992.4,2221.48 1987.9,2322.14 1976,2422.5C 1974.26,2423.76 1972.43,2424.76 1970.5,2425.5C 1881.84,2431.59 1793.17,2437.59 1704.5,2443.5C 1775.86,2373.19 1828.36,2290.52 1862,2195.5C 1869.71,2173.21 1876.88,2150.87 1883.5,2128.5C 1918.89,2125.96 1954.22,2123.3 1989.5,2120.5 Z"/></g>
<g><path style="opacity:0.985" fill="#d2bc8e" d="M 1313.5,2168.5 C 1243.42,2240.21 1162.75,2297.21 1071.5,2339.5C 1067.86,2337.03 1064.36,2334.36 1061,2331.5C 1054.53,2335.65 1047.69,2339.15 1040.5,2342C 1037.64,2344.36 1034.64,2346.53 1031.5,2348.5C 1016.44,2342.04 1001.11,2336.37 985.5,2331.5C 985.954,2328.86 987.121,2326.53 989,2324.5C 1027.61,2276.39 1067.11,2229.06 1107.5,2182.5C 1176.15,2177.64 1244.82,2172.98 1313.5,2168.5 Z"/></g>
<g><path style="opacity:0.934" fill="#d2bb8a" d="M 3108.5,2345.5 C 3146.39,2363.11 3184.06,2381.28 3221.5,2400C 3220.67,2400.17 3219.83,2400.33 3219,2400.5C 3152.21,2384.26 3085.37,2368.26 3018.5,2352.5C 3048.34,2350 3078.34,2347.66 3108.5,2345.5 Z"/></g>
<g><path style="opacity:0.99" fill="#d2ba8a" d="M 1970.5,2425.5 C 1915.23,2461.43 1860.23,2497.77 1805.5,2534.5C 1730.84,2539.68 1656.18,2544.68 1581.5,2549.5C 1623.02,2514.89 1664.02,2479.55 1704.5,2443.5C 1793.17,2437.59 1881.84,2431.59 1970.5,2425.5 Z"/></g>
<g><path style="opacity:0.99" fill="#d2b986" d="M 1805.5,2534.5 C 1708.98,2600.12 1615.98,2670.62 1526.5,2746C 1447.03,2814.3 1372.7,2887.8 1303.5,2966.5C 1230.17,2971.59 1156.84,2976.59 1083.5,2981.5C 1138.42,2920.74 1196.76,2863.57 1258.5,2810C 1294.8,2778.86 1331.46,2748.19 1368.5,2718C 1439.53,2661.82 1510.53,2605.66 1581.5,2549.5C 1656.18,2544.68 1730.84,2539.68 1805.5,2534.5 Z"/></g>
<g><path style="opacity:0.993" fill="#d2b780" d="M 1303.5,2966.5 C 1218.9,3065.31 1145.4,3171.98 1083,3286.5C 1065.36,3318.79 1048.52,3351.46 1032.5,3384.5C 958.487,3389.31 884.487,3394.31 810.5,3399.5C 841.328,3324.16 879.161,3252.83 924,3185.5C 971.634,3113.26 1024.8,3045.26 1083.5,2981.5C 1156.84,2976.59 1230.17,2971.59 1303.5,2966.5 Z"/></g>
<g><path style="opacity:0.991" fill="#d2b67d" d="M 2432.5,3286.5 C 2309.31,3294.66 2186.31,3303.32 2063.5,3312.5C 2014.03,3305.17 1964.7,3306.01 1915.5,3315C 1900.07,3318.19 1884.74,3321.69 1869.5,3325.5C 1785.16,3331.41 1700.82,3337.41 1616.5,3343.5C 1717.15,3264.03 1831.15,3213.53 1958.5,3192C 2002.68,3185.21 2047.01,3183.88 2091.5,3188C 2199.93,3198.15 2303.6,3225.81 2402.5,3271C 2412.72,3275.94 2422.72,3281.11 2432.5,3286.5 Z"/></g>
<g><path style="opacity:0.992" fill="#d1b57c" d="M 2432.5,3286.5 C 2435.48,3287.33 2438.15,3288.66 2440.5,3290.5C 2321.69,3299.44 2202.69,3307.77 2083.5,3315.5C 2076.79,3314.76 2070.13,3313.76 2063.5,3312.5C 2186.31,3303.32 2309.31,3294.66 2432.5,3286.5 Z"/></g>
<g><path style="opacity:0.993" fill="#d2b479" d="M 2440.5,3290.5 C 2599.99,3376.5 2717.82,3501.83 2794,3666.5C 2799.07,3677.3 2803.57,3688.3 2807.5,3699.5C 2737.79,3704.26 2668.13,3709.26 2598.5,3714.5C 2516.18,3574.35 2404.52,3463.85 2263.5,3383C 2206.69,3351.75 2146.69,3329.25 2083.5,3315.5C 2202.69,3307.77 2321.69,3299.44 2440.5,3290.5 Z"/></g>
<g><path style="opacity:0.986" fill="#d1b57c" d="M 1869.5,3325.5 C 1862.38,3328.2 1855.05,3330.54 1847.5,3332.5C 1768.52,3338.1 1689.52,3343.43 1610.5,3348.5C 1612.09,3346.37 1614.09,3344.7 1616.5,3343.5C 1700.82,3337.41 1785.16,3331.41 1869.5,3325.5 Z"/></g>
<g><path style="opacity:0.991" fill="#d2b479" d="M 1847.5,3332.5 C 1715.24,3377.26 1621.07,3463.59 1565,3591.5C 1549.01,3626.96 1540.18,3664.13 1538.5,3703C 1538.57,3733.04 1546.24,3760.87 1561.5,3786.5C 1504.51,3790.64 1447.51,3794.64 1390.5,3798.5C 1378.59,3737.22 1383.43,3677.22 1405,3618.5C 1427.32,3558.94 1458.66,3504.94 1499,3456.5C 1532.48,3416.52 1569.65,3380.52 1610.5,3348.5C 1689.52,3343.43 1768.52,3338.1 1847.5,3332.5 Z"/></g>
<g><path style="opacity:0.994" fill="#d1b57c" d="M 1032.5,3384.5 C 1032.11,3386.28 1031.44,3387.95 1030.5,3389.5C 956.127,3394.6 881.793,3399.93 807.5,3405.5C 808.514,3403.43 809.514,3401.43 810.5,3399.5C 884.487,3394.31 958.487,3389.31 1032.5,3384.5 Z"/></g>
<g><path style="opacity:0.995" fill="#d2b479" d="M 1030.5,3389.5 C 967.086,3529.51 935.086,3676.51 934.5,3830.5C 862.5,3835.5 790.5,3840.5 718.5,3845.5C 722.295,3693.52 751.962,3546.86 807.5,3405.5C 881.793,3399.93 956.127,3394.6 1030.5,3389.5 Z"/></g>
<g><path style="opacity:0.994" fill="#d2b173" d="M 2807.5,3699.5 C 2843.04,3785.98 2864.54,3875.98 2872,3969.5C 2877.09,4029.94 2876.26,4090.28 2869.5,4150.5C 2813.84,4154.55 2758.17,4158.55 2702.5,4162.5C 2712.79,4068.25 2703.62,3975.92 2675,3885.5C 2655.99,3825.48 2630.49,3768.48 2598.5,3714.5C 2668.13,3709.26 2737.79,3704.26 2807.5,3699.5 Z"/></g>
<g><path style="opacity:0.98" fill="#d2b377" d="M 2008.5,3755.5 C 1965.49,3758.36 1922.49,3761.36 1879.5,3764.5C 1878.29,3749.3 1883.29,3736.47 1894.5,3726C 1915.38,3707.82 1939.71,3699.82 1967.5,3702C 1989.01,3713.86 2002.67,3731.69 2008.5,3755.5 Z"/></g>
<g><path style="opacity:0.992" fill="#d2b275" d="M 2008.5,3755.5 C 2012.76,3775.79 2012.26,3796.12 2007,3816.5C 1996.94,3851.29 1980.61,3882.62 1958,3910.5C 1907.38,3974.08 1842.55,4015.91 1763.5,4036C 1691.81,4051 1623.81,4041 1559.5,4006C 1510.63,3978.14 1468.79,3941.97 1434,3897.5C 1412.97,3867.44 1398.47,3834.44 1390.5,3798.5C 1447.51,3794.64 1504.51,3790.64 1561.5,3786.5C 1597.44,3835.83 1645.77,3866 1706.5,3877C 1745.73,3884.98 1784.06,3881.98 1821.5,3868C 1852.82,3854.22 1871.32,3830.38 1877,3796.5C 1878.83,3785.91 1879.66,3775.24 1879.5,3764.5C 1922.49,3761.36 1965.49,3758.36 2008.5,3755.5 Z"/></g>
<g><path style="opacity:0.995" fill="#d2b173" d="M 934.5,3830.5 C 931.075,3986.37 958.742,4136.37 1017.5,4280.5C 943.823,4285.36 870.157,4290.36 796.5,4295.5C 747.99,4170.79 722.157,4041.46 719,3907.5C 718.5,3886.84 718.333,3866.17 718.5,3845.5C 790.5,3840.5 862.5,3835.5 934.5,3830.5 Z"/></g>
<g><path style="opacity:0.993" fill="#d0af6f" d="M 2869.5,4150.5 C 2866.88,4179.56 2862.54,4208.22 2856.5,4236.5C 2799.85,4240.63 2743.18,4244.63 2686.5,4248.5C 2693.77,4220.21 2699.1,4191.54 2702.5,4162.5C 2758.17,4158.55 2813.84,4154.55 2869.5,4150.5 Z"/></g>
<g><path style="opacity:0.993" fill="#cfad6e" d="M 2856.5,4236.5 C 2848.03,4283.24 2835.7,4328.91 2819.5,4373.5C 2757.26,4378.45 2694.93,4382.78 2632.5,4386.5C 2655.41,4342.42 2673.41,4296.42 2686.5,4248.5C 2743.18,4244.63 2799.85,4240.63 2856.5,4236.5 Z"/></g>
<g><path style="opacity:0.994" fill="#d0af6f" d="M 1017.5,4280.5 C 1030.27,4308.04 1043.6,4335.37 1057.5,4362.5C 982.759,4367.53 908.092,4372.86 833.5,4378.5C 819.832,4351.49 807.499,4323.83 796.5,4295.5C 870.157,4290.36 943.823,4285.36 1017.5,4280.5 Z"/></g>
<g><path style="opacity:0.994" fill="#cfad6e" d="M 1057.5,4362.5 C 1083.34,4407.33 1112.34,4450 1144.5,4490.5C 1066.01,4496.54 987.343,4502.2 908.5,4507.5C 880.222,4466.64 855.222,4423.64 833.5,4378.5C 908.092,4372.86 982.759,4367.53 1057.5,4362.5 Z"/></g>
<g><path style="opacity:0.993" fill="#cdac6b" d="M 2819.5,4373.5 C 2799.16,4432.51 2773.16,4488.84 2741.5,4542.5C 2663.18,4548.07 2584.85,4553.4 2506.5,4558.5C 2555.87,4506.48 2597.87,4449.14 2632.5,4386.5C 2694.93,4382.78 2757.26,4378.45 2819.5,4373.5 Z"/></g>
<g><path style="opacity:0.993" fill="#cdac6b" d="M 1144.5,4490.5 C 1179.23,4532.07 1217.23,4570.57 1258.5,4606C 1273.72,4618.43 1289.05,4630.59 1304.5,4642.5C 1214.22,4649.32 1123.89,4655.65 1033.5,4661.5C 987.318,4613.67 945.651,4562.34 908.5,4507.5C 987.343,4502.2 1066.01,4496.54 1144.5,4490.5 Z"/></g>
<g><path style="opacity:0.993" fill="#cba968" d="M 2741.5,4542.5 C 2677.72,4651.63 2595.05,4744.3 2493.5,4820.5C 2115.16,4846.79 1736.83,4873.12 1358.5,4899.5C 1236.84,4838.49 1128.51,4759.16 1033.5,4661.5C 1123.89,4655.65 1214.22,4649.32 1304.5,4642.5C 1515.66,4794.96 1750.99,4855.13 2010.5,4823C 2144.76,4803.17 2266.09,4753.17 2374.5,4673C 2421.62,4638.73 2465.62,4600.56 2506.5,4558.5C 2584.85,4553.4 2663.18,4548.07 2741.5,4542.5 Z"/></g>
<g><path style="opacity:0.471" fill="#c8a966" d="M 2907.5,4791.5 C 2905.83,4791.5 2904.17,4791.5 2902.5,4791.5C 2903.81,4789.52 2905.48,4787.85 2907.5,4786.5C 2908.05,4788 2908.05,4789.67 2907.5,4791.5 Z"/></g>
<g><path style="opacity:0.977" fill="#c8a665" d="M 2902.5,4791.5 C 2904.17,4791.5 2905.83,4791.5 2907.5,4791.5C 2904.72,4827.39 2900.22,4863.05 2894,4898.5C 2888.2,4922.74 2880.7,4946.41 2871.5,4969.5C 2839.12,4971.5 2806.79,4973.84 2774.5,4976.5C 2782.08,4965.69 2788.91,4954.36 2795,4942.5C 2805.14,4921.08 2815.47,4899.75 2826,4878.5C 2834.4,4863.09 2844.74,4849.09 2857,4836.5C 2872.03,4821.3 2887.2,4806.3 2902.5,4791.5 Z"/></g>
<g><path style="opacity:0.995" fill="#c8a765" d="M 2493.5,4820.5 C 2380.02,4906.42 2253.68,4965.59 2114.5,4998C 1936.94,5039.17 1760.27,5035.5 1584.5,4987C 1506.11,4965.38 1430.78,4936.21 1358.5,4899.5C 1736.83,4873.12 2115.16,4846.79 2493.5,4820.5 Z"/></g>
<g><path style="opacity:0.982" fill="#caa967" d="M 938.5,4928.5 C 891.693,4932.44 844.693,4935.77 797.5,4938.5C 767.538,4921.85 737.205,4905.68 706.5,4890C 698.511,4886.02 691.677,4880.52 686,4873.5C 677.176,4853.99 682.342,4839.49 701.5,4830C 708.623,4827.34 715.957,4825.51 723.5,4824.5C 800.466,4848.82 872.133,4883.49 938.5,4928.5 Z"/></g>
<g><path style="opacity:0.986" fill="#c8a765" d="M 938.5,4928.5 C 971.828,4949.84 1004.16,4972.67 1035.5,4997C 1074.31,5027.32 1112.64,5058.15 1150.5,5089.5C 1101.53,5093.19 1052.53,5096.52 1003.5,5099.5C 941.113,5037.4 872.446,4983.74 797.5,4938.5C 844.693,4935.77 891.693,4932.44 938.5,4928.5 Z"/></g>
<g><path style="opacity:0.988" fill="#c6a663" d="M 2871.5,4969.5 C 2871.17,4970.17 2870.83,4970.83 2870.5,4971.5C 2838.5,4973.54 2806.5,4975.54 2774.5,4977.5C 2774.5,4977.17 2774.5,4976.83 2774.5,4976.5C 2806.79,4973.84 2839.12,4971.5 2871.5,4969.5 Z"/></g>
<g><path style="opacity:0.983" fill="#c7a663" d="M 2870.5,4971.5 C 2870.17,4972.17 2869.83,4972.83 2869.5,4973.5C 2837.16,4975.36 2804.82,4977.36 2772.5,4979.5C 2772.83,4978.5 2773.5,4977.83 2774.5,4977.5C 2806.5,4975.54 2838.5,4973.54 2870.5,4971.5 Z"/></g>
<g><path style="opacity:0.986" fill="#c7a564" d="M 2869.5,4973.5 C 2862.99,4989.53 2855.65,5005.19 2847.5,5020.5C 2808.53,5023.5 2769.53,5026.16 2730.5,5028.5C 2746,5013.34 2760,4997.01 2772.5,4979.5C 2804.82,4977.36 2837.16,4975.36 2869.5,4973.5 Z"/></g>
<g><path style="opacity:0.99" fill="#c4a361" d="M 2847.5,5020.5 C 2825.77,5061.65 2801.27,5100.99 2774,5138.5C 2746.2,5176.81 2716.36,5213.47 2684.5,5248.5C 2521.48,5259.6 2358.48,5270.93 2195.5,5282.5C 2285.46,5254.01 2374.13,5221.85 2461.5,5186C 2525.38,5159.72 2586.72,5128.72 2645.5,5093C 2675.66,5073.92 2703.99,5052.42 2730.5,5028.5C 2769.53,5026.16 2808.53,5023.5 2847.5,5020.5 Z"/></g>
<g><path style="opacity:0.982" fill="#c6a663" d="M 1150.5,5089.5 C 1152.03,5089.43 1153.03,5090.09 1153.5,5091.5C 1104.15,5094.64 1054.82,5097.98 1005.5,5101.5C 1004.5,5101.17 1003.83,5100.5 1003.5,5099.5C 1052.53,5096.52 1101.53,5093.19 1150.5,5089.5 Z"/></g>
<g><path style="opacity:0.988" fill="#c7a663" d="M 1153.5,5091.5 C 1154.17,5091.5 1154.5,5091.83 1154.5,5092.5C 1105.54,5096.21 1056.54,5099.88 1007.5,5103.5C 1006.5,5103.17 1005.83,5102.5 1005.5,5101.5C 1054.82,5097.98 1104.15,5094.64 1153.5,5091.5 Z"/></g>
<g><path style="opacity:0.988" fill="#c7a564" d="M 1154.5,5092.5 C 1173.14,5106.48 1191.48,5120.82 1209.5,5135.5C 1155.81,5138.84 1102.14,5142.5 1048.5,5146.5C 1034.61,5132.4 1020.94,5118.07 1007.5,5103.5C 1056.54,5099.88 1105.54,5096.21 1154.5,5092.5 Z"/></g>
<g><path style="opacity:0.99" fill="#c5a461" d="M 1209.5,5135.5 C 1257.43,5171.56 1307.43,5204.73 1359.5,5235C 1433.5,5276.39 1511.83,5306.22 1594.5,5324.5C 1485.48,5332.03 1376.48,5339.69 1267.5,5347.5C 1239.34,5318.17 1210.34,5289.67 1180.5,5262C 1151.61,5236.89 1120.95,5214.23 1088.5,5194C 1075.33,5178 1062,5162.17 1048.5,5146.5C 1102.14,5142.5 1155.81,5138.84 1209.5,5135.5 Z"/></g>
<g><path style="opacity:0.995" fill="#c2a15f" d="M 2684.5,5248.5 C 2639.7,5300.64 2592.36,5350.64 2542.5,5398.5C 2463.17,5403.83 2383.83,5409.17 2304.5,5414.5C 2324.68,5396.82 2345.35,5379.65 2366.5,5363C 2367.7,5362.35 2367.7,5361.85 2366.5,5361.5C 2334.13,5380.22 2301.8,5398.89 2269.5,5417.5C 2025.16,5434.36 1780.82,5451.36 1536.5,5468.5C 1525.95,5463.29 1515.61,5457.62 1505.5,5451.5C 1505.17,5451.67 1504.83,5451.83 1504.5,5452C 1509,5458 1513.67,5463.83 1518.5,5469.5C 1471.2,5473.12 1423.87,5476.45 1376.5,5479.5C 1341.71,5434.36 1305.37,5390.36 1267.5,5347.5C 1376.48,5339.69 1485.48,5332.03 1594.5,5324.5C 1688.75,5343.01 1783.75,5348.18 1879.5,5340C 1986.62,5330.54 2091.95,5311.38 2195.5,5282.5C 2358.48,5270.93 2521.48,5259.6 2684.5,5248.5 Z"/></g>
<g><path style="opacity:0.991" fill="#c1a05e" d="M 2542.5,5398.5 C 2510.5,5429.84 2478.16,5460.84 2445.5,5491.5C 2366.52,5497.31 2287.52,5502.97 2208.5,5508.5C 2238.9,5475.44 2270.9,5444.1 2304.5,5414.5C 2383.83,5409.17 2463.17,5403.83 2542.5,5398.5 Z"/></g>
<g><path style="opacity:0.994" fill="#c1a05e" d="M 2269.5,5417.5 C 2232.93,5440.29 2194.93,5460.79 2155.5,5479C 2112.85,5495.27 2069.51,5509.44 2025.5,5521.5C 1932.82,5527.66 1840.15,5533.99 1747.5,5540.5C 1672.91,5528.69 1602.57,5504.69 1536.5,5468.5C 1780.82,5451.36 2025.16,5434.36 2269.5,5417.5 Z"/></g>
<g><path style="opacity:0.989" fill="#c1a05e" d="M 1518.5,5469.5 C 1541.51,5496.52 1564.18,5523.85 1586.5,5551.5C 1536.53,5555.26 1486.53,5558.93 1436.5,5562.5C 1416.76,5534.69 1396.76,5507.03 1376.5,5479.5C 1423.87,5476.45 1471.2,5473.12 1518.5,5469.5 Z"/></g>
<g><path style="opacity:0.991" fill="#be9e5b" d="M 2445.5,5491.5 C 2377.62,5554.2 2310.46,5617.87 2244,5682.5C 2230.67,5697.17 2217.33,5711.83 2204,5726.5C 2189.57,5745.06 2175.4,5763.72 2161.5,5782.5C 2110.2,5786.45 2058.87,5790.12 2007.5,5793.5C 2061.7,5689.33 2128.7,5594.33 2208.5,5508.5C 2287.52,5502.97 2366.52,5497.31 2445.5,5491.5 Z"/></g>
<g><path style="opacity:0.952" fill="#c0a05c" d="M 2025.5,5521.5 C 1934.24,5549.16 1841.58,5555.49 1747.5,5540.5C 1840.15,5533.99 1932.82,5527.66 2025.5,5521.5 Z"/></g>
<g><path style="opacity:0.991" fill="#be9d5b" d="M 1586.5,5551.5 C 1651.14,5632.73 1707.8,5719.39 1756.5,5811.5C 1703.79,5814.69 1651.12,5818.36 1598.5,5822.5C 1548.06,5733.44 1494.06,5646.78 1436.5,5562.5C 1486.53,5558.93 1536.53,5555.26 1586.5,5551.5 Z"/></g>
<g><path style="opacity:0.989" fill="#bc9b59" d="M 2161.5,5782.5 C 2140.57,5814.01 2120.91,5846.34 2102.5,5879.5C 2055.83,5882.5 2009.17,5885.5 1962.5,5888.5C 1976.15,5856.19 1991.15,5824.53 2007.5,5793.5C 2058.87,5790.12 2110.2,5786.45 2161.5,5782.5 Z"/></g>
<g><path style="opacity:0.991" fill="#bc9b59" d="M 1756.5,5811.5 C 1772.79,5840.42 1787.79,5870.08 1801.5,5900.5C 1750.17,5903.88 1698.84,5907.21 1647.5,5910.5C 1631.69,5880.88 1615.36,5851.55 1598.5,5822.5C 1651.12,5818.36 1703.79,5814.69 1756.5,5811.5 Z"/></g>
<g><path style="opacity:0.989" fill="#bb9a58" d="M 2102.5,5879.5 C 2094.42,5896 2086.09,5912.33 2077.5,5928.5C 2032.48,5931.75 1987.48,5935.08 1942.5,5938.5C 1948.6,5921.52 1955.27,5904.85 1962.5,5888.5C 2009.17,5885.5 2055.83,5882.5 2102.5,5879.5 Z"/></g>
<g><path style="opacity:0.991" fill="#bb9a58" d="M 1801.5,5900.5 C 1808.71,5915.6 1815.38,5930.93 1821.5,5946.5C 1771.67,5949.94 1722,5953.61 1672.5,5957.5C 1663.93,5942.03 1655.59,5926.36 1647.5,5910.5C 1698.84,5907.21 1750.17,5903.88 1801.5,5900.5 Z"/></g>
<g><path style="opacity:0.717" fill="#bc9b58" d="M 1230.5,5940.5 C 1227.17,5940.5 1223.83,5940.5 1220.5,5940.5C 1216.53,5935.92 1213.03,5930.92 1210,5925.5C 1209.31,5924.67 1209.48,5924 1210.5,5923.5C 1217.24,5929.18 1223.9,5934.85 1230.5,5940.5 Z"/></g>
<g><path style="opacity:0.992" fill="#b89855" d="M 2077.5,5928.5 C 2037.48,6015.24 2005.31,6104.91 1981,6197.5C 1972.52,6230.1 1964.35,6262.77 1956.5,6295.5C 1914.08,6297.98 1871.74,6300.98 1829.5,6304.5C 1783.46,6186.07 1731.12,6070.4 1672.5,5957.5C 1722,5953.61 1771.67,5949.94 1821.5,5946.5C 1845.69,6001.54 1866.85,6057.88 1885,6115.5C 1888.27,6105.03 1891.94,6094.69 1896,6084.5C 1908.42,6034.73 1923.92,5986.07 1942.5,5938.5C 1987.48,5935.08 2032.48,5931.75 2077.5,5928.5 Z"/></g>
<g><path style="opacity:0.926" fill="#bb9a58" d="M 1220.5,5940.5 C 1223.83,5940.5 1227.17,5940.5 1230.5,5940.5C 1248.15,5954.82 1265.49,5969.49 1282.5,5984.5C 1271.49,5985.08 1260.49,5985.74 1249.5,5986.5C 1239.34,5971.51 1229.67,5956.18 1220.5,5940.5 Z"/></g>
<g><path style="opacity:0.985" fill="#b79754" d="M 1282.5,5984.5 C 1378.56,6060.7 1469.06,6143.7 1554,6233.5C 1579.45,6261.12 1603.95,6289.45 1627.5,6318.5C 1572.5,6322.12 1517.5,6325.79 1462.5,6329.5C 1392.76,6214.34 1321.76,6100 1249.5,5986.5C 1260.49,5985.74 1271.49,5985.08 1282.5,5984.5 Z"/></g>
<g><path style="opacity:0.978" fill="#b69653" d="M 2426.5,6262.5 C 2378.48,6265.64 2330.48,6268.98 2282.5,6272.5C 2306.99,6250.24 2333.99,6231.41 2363.5,6216C 2375.52,6209.96 2388.19,6207.96 2401.5,6210C 2416.74,6214.58 2425.58,6224.75 2428,6240.5C 2428.67,6246.17 2428.67,6251.83 2428,6257.5C 2427.8,6259.38 2427.3,6261.05 2426.5,6262.5 Z"/></g>
<g><path style="opacity:0.986" fill="#b59652" d="M 2426.5,6262.5 C 2418.82,6271.87 2411.16,6281.21 2403.5,6290.5C 2351.49,6294.08 2299.49,6297.74 2247.5,6301.5C 2258.6,6291.12 2270.27,6281.45 2282.5,6272.5C 2330.48,6268.98 2378.48,6265.64 2426.5,6262.5 Z"/></g>
<g><path style="opacity:0.99" fill="#b49551" d="M 2403.5,6290.5 C 2366.91,6335.76 2332.24,6382.42 2299.5,6430.5C 2235.47,6435.04 2171.47,6439.7 2107.5,6444.5C 2109.89,6437.49 2112.39,6430.49 2115,6423.5C 2157.84,6381.15 2202,6340.49 2247.5,6301.5C 2299.49,6297.74 2351.49,6294.08 2403.5,6290.5 Z"/></g>
<g><path style="opacity:0.99" fill="#b59652" d="M 1956.5,6295.5 C 1954.32,6304.56 1951.99,6313.56 1949.5,6322.5C 1912.84,6324.93 1876.17,6327.26 1839.5,6329.5C 1836.19,6321.24 1832.85,6312.9 1829.5,6304.5C 1871.74,6300.98 1914.08,6297.98 1956.5,6295.5 Z"/></g>
<g><path style="opacity:0.991" fill="#b59652" d="M 1627.5,6318.5 C 1634.92,6326.25 1641.59,6334.58 1647.5,6343.5C 1590.8,6347.22 1534.13,6351.22 1477.5,6355.5C 1471.98,6347.13 1466.98,6338.47 1462.5,6329.5C 1517.5,6325.79 1572.5,6322.12 1627.5,6318.5 Z"/></g>
<g><path style="opacity:0.98" fill="#b49551" d="M 1949.5,6322.5 C 1943.27,6353.74 1934.11,6384.07 1922,6413.5C 1918.77,6418.79 1914.94,6423.62 1910.5,6428C 1899.33,6434.42 1887.99,6440.59 1876.5,6446.5C 1865.25,6407.16 1852.91,6368.16 1839.5,6329.5C 1876.17,6327.26 1912.84,6324.93 1949.5,6322.5 Z"/></g>
<g><path style="opacity:0.992" fill="#b49551" d="M 1647.5,6343.5 C 1680.19,6383.86 1710.19,6426.2 1737.5,6470.5C 1675.31,6474.18 1613.31,6478.51 1551.5,6483.5C 1526.85,6440.87 1502.18,6398.2 1477.5,6355.5C 1534.13,6351.22 1590.8,6347.22 1647.5,6343.5 Z"/></g>
<g><path style="opacity:0.992" fill="#b1924e" d="M 2299.5,6430.5 C 2199.77,6575.96 2121.1,6732.63 2063.5,6900.5C 1966.22,6907.59 1868.89,6914.59 1771.5,6921.5C 1704.99,6771.81 1631.65,6625.81 1551.5,6483.5C 1613.31,6478.51 1675.31,6474.18 1737.5,6470.5C 1783.59,6543.2 1819.42,6620.87 1845,6703.5C 1854.79,6740.97 1863.79,6778.64 1872,6816.5C 1876.32,6834.15 1882.99,6850.81 1892,6866.5C 1894.17,6870.68 1897.51,6873.35 1902,6874.5C 1906.63,6873.2 1910.79,6871.04 1914.5,6868C 1934.3,6847.9 1950.8,6825.4 1964,6800.5C 1996.75,6738 2025.42,6673.66 2050,6607.5C 2070.3,6553.57 2089.46,6499.24 2107.5,6444.5C 2171.47,6439.7 2235.47,6435.04 2299.5,6430.5 Z"/></g>
<g><path style="opacity:0.995" fill="#ae904c" d="M 2063.5,6900.5 C 2058.34,6916.66 2053,6932.66 2047.5,6948.5C 1961.98,6953.93 1876.64,6959.93 1791.5,6966.5C 1784.85,6951.57 1778.18,6936.57 1771.5,6921.5C 1868.89,6914.59 1966.22,6907.59 2063.5,6900.5 Z"/></g>
<g><path style="opacity:0.994" fill="#ad8e4b" d="M 2047.5,6948.5 C 2033.57,6995.26 2020.91,7042.26 2009.5,7089.5C 1954.81,7092.79 1900.14,7096.45 1845.5,7100.5C 1828.09,7055.67 1810.09,7011.01 1791.5,6966.5C 1876.64,6959.93 1961.98,6953.93 2047.5,6948.5 Z"/></g>
<g><path style="opacity:0.985" fill="#ac8d49" d="M 2009.5,7089.5 C 1998.73,7138.18 1989.56,7187.18 1982,7236.5C 1973.24,7305.8 1965.07,7375.13 1957.5,7444.5C 1955.86,7442.07 1954.69,7439.41 1954,7436.5C 1922.54,7322.94 1886.37,7210.94 1845.5,7100.5C 1900.14,7096.45 1954.81,7092.79 2009.5,7089.5 Z"/></g>
</svg>
